<svg width="32" height="32" viewBox="0 0 32 32" fill="none" xmlns="http://www.w3.org/2000/svg">
<path d="M24.0414 22.1557L29.7516 27.866L27.866 29.7516L22.1558 24.0413C20.1026 25.684 17.4987 26.6666 14.6667 26.6666C8.04269 26.6666 2.66669 21.2906 2.66669 14.6666C2.66669 8.04263 8.04269 2.66663 14.6667 2.66663C21.2907 2.66663 26.6667 8.04263 26.6667 14.6666C26.6667 17.4986 25.684 20.1025 24.0414 22.1557ZM21.3663 21.1664C22.9967 19.4861 24 17.1941 24 14.6666C24 9.50996 19.8234 5.33329 14.6667 5.33329C9.51002 5.33329 5.33335 9.50996 5.33335 14.6666C5.33335 19.8233 9.51002 24 14.6667 24C17.1942 24 19.4862 22.9966 21.1664 21.3662L21.3663 21.1664Z" fill="#1A9DF0"/>
</svg>
